<?xml version="1.0" standalone="no"?>
<!DOCTYPE svg PUBLIC "-//W3C//DTD SVG 20010904//EN"
 "http://www.w3.org/TR/2001/REC-SVG-20010904/DTD/svg10.dtd">
<svg version="1.0" xmlns="http://www.w3.org/2000/svg"
 width="265.000000pt" height="265.000000pt" viewBox="0 0 265.000000 265.000000"
 preserveAspectRatio="xMidYMid meet">

<g transform="translate(0.000000,265.000000) scale(0.100000,-0.100000)"
fill="#000000" stroke="none">
<path d="M485 2006 c-98 -31 -173 -95 -217 -183 -31 -63 -33 -74 -38 -207 -3
-80 -11 -150 -18 -162 -20 -37 -72 -74 -103 -74 l-29 0 0 -90 0 -90 34 0 c18
0 45 -9 58 -20 46 -36 58 -77 58 -203 0 -158 21 -225 96 -306 70 -76 143 -112
237 -119 l67 -5 0 76 0 75 -37 7 c-76 14 -140 61 -174 128 -16 31 -20 59 -20
161 -1 146 -18 209 -73 265 l-37 38 26 17 c15 10 39 43 53 74 23 50 27 73 30
187 3 88 9 140 19 160 35 70 113 125 178 125 l35 0 0 80 0 80 -52 -1 c-29 0
-71 -6 -93 -13z"/>
<path d="M1970 1943 l0 -80 50 -5 c64 -6 121 -44 157 -105 25 -43 28 -58 34
-187 7 -156 19 -197 69 -239 16 -14 30 -29 30 -32 0 -4 -11 -16 -25 -27 -54
-42 -69 -91 -75 -248 -5 -121 -10 -152 -27 -185 -36 -69 -100 -116 -176 -130
l-37 -7 0 -75 0 -76 68 5 c121 9 236 88 295 203 29 57 31 68 37 210 3 87 11
159 18 172 19 34 62 63 93 63 l29 0 0 90 c0 85 -1 90 -21 90 -31 0 -74 29 -95
64 -15 25 -20 59 -24 176 -6 141 -7 147 -39 208 -60 111 -168 181 -293 190
l-68 5 0 -80z"/>
<path d="M1025 1887 c-53 -14 -136 -98 -153 -153 -18 -62 -16 -865 2 -917 21
-57 61 -103 113 -128 46 -23 60 -24 288 -27 282 -4 328 3 388 56 60 55 77 100
77 210 l0 92 -115 0 -115 0 0 -63 c0 -36 -5 -68 -12 -75 -17 -17 -379 -17
-396 0 -9 9 -12 111 -12 399 0 339 2 390 16 403 13 13 44 16 184 16 93 0 180
-4 194 -10 25 -9 26 -14 26 -80 l0 -70 115 0 115 0 0 92 c0 107 -20 160 -78
208 -66 54 -101 60 -361 59 -130 -1 -254 -6 -276 -12z"/>
</g>
</svg>
